<svg class="svg-icon" style="width: 1em; height: 1em;vertical-align: middle;fill: currentColor;overflow: hidden;" viewBox="0 0 1024 1024" version="1.1" xmlns="http://www.w3.org/2000/svg"><path d="M254.72 808.79a14.867 14.867 0 0 0 3.34 12.112 14.853 14.853 0 0 0 11.403 5.213l250.657-0.617a14.96 14.96 0 0 0 13.422-8.729 14.934 14.934 0 0 0-2.154-15.867 159.563 159.563 0 0 1-33.41-122.249 159.795 159.795 0 0 1 68.718-109.813 159.693 159.693 0 0 1 127.524-22.781c6.808 1.604 13.81-1.846 16.7-8.206a309 309 0 0 0 27.366-143.465A310.133 310.133 0 0 0 625.73 169.975a310.044 310.044 0 0 0-241.803-67.525l0.025 0.076c0.166-0.023 0.329-0.053 0.496-0.076a237.566 237.566 0 0 1 13.622 79.517c0.174 70.575-31.003 137.592-85.08 182.914-54.061 45.323-125.439 64.309-194.868 51.864 2.521 108.72 61.861 208.176 156.366 262.013 12.112 6.953 17.741 21.417 13.529 34.732-19.167 25.511-28.992 70.619-33.297 95.3z m99.803-406.795a22.445 22.445 0 0 1 22.442 23.961c0.014 18.749 10.271 35.944 26.684 44.905 0.011 0.026 0.02 0.053 0.034 0.079 0.182 0.102 0.357 0.213 0.544 0.312a51.234 51.234 0 0 0 50.481-1.31c15.427-9.28 24.85-25.991 24.84-43.985a22.409 22.409 0 0 1 10.733-20.695 22.338 22.338 0 0 1 11.909-3.25 22.401 22.401 0 0 1 11.913 3.25 22.466 22.466 0 0 1 10.738 20.695c-0.041 35.106-19.213 67.396-50.014 84.223a95.942 95.942 0 0 1-47.906 11.845 95.976 95.976 0 0 1-47.749-13.381 95.997 95.997 0 0 1-47.086-82.688 22.415 22.415 0 0 1 10.736-20.694 22.354 22.354 0 0 1 11.701-3.267zM273.57 516.54a582.224 582.224 0 0 1-74.289-84.652 231.858 231.858 0 0 1 74.289 84.652z" fill="#FFBA00" opacity=".4" /><path d="M761.031 608.093a137.48 137.48 0 0 0-97.248-40.319c-75.858 0-137.38 61.496-137.406 137.353-0.041 75.869 61.403 137.406 137.27 137.488 75.871 0.076 137.445-61.344 137.555-137.222a137.46 137.46 0 0 0-40.171-97.3z m-87.502 24.628c0.065 0.035 0.119 0.083 0.184 0.119 0.602 0.358 1.179 0.747 1.735 1.162 0.134 0.103 0.271 0.198 0.397 0.302a18.956 18.956 0 0 1 1.782 1.566l0.032 0.034a20.002 20.002 0 0 1 1.479 1.693c0.133 0.17 0.261 0.348 0.391 0.521 0.35 0.48 0.682 0.976 0.987 1.485 0.099 0.161 0.202 0.318 0.294 0.479 0.386 0.681 0.736 1.379 1.038 2.105 0.012 0.024 0.018 0.05 0.029 0.078 0.284 0.685 0.517 1.394 0.721 2.11 0.058 0.197 0.106 0.399 0.155 0.6 0.144 0.575 0.261 1.163 0.352 1.762 0.037 0.21 0.071 0.42 0.099 0.634 0.096 0.78 0.158 1.571 0.158 2.379v35.979h35.975l0.092-0.109c10.869 0 19.679 8.811 19.679 19.679a19.591 19.591 0 0 1-5.788 13.93 19.597 19.597 0 0 1-13.982 5.84l0.046-0.107h-35.917v35.886c0 3.407-0.871 6.613-2.399 9.411-3.302 6.222-9.836 10.453-17.372 10.453-10.87 0-19.679-8.796-19.679-19.678v-35.962h-35.87c-0.806 0-1.595-0.062-2.377-0.159-0.215-0.025-0.424-0.064-0.635-0.097a19.224 19.224 0 0 1-1.763-0.354c-0.198-0.05-0.398-0.095-0.595-0.152a19.438 19.438 0 0 1-2.116-0.721l-0.078-0.031c-0.727-0.3-1.423-0.653-2.098-1.036-0.167-0.097-0.327-0.199-0.49-0.298a19.686 19.686 0 0 1-1.47-0.983c-0.182-0.132-0.36-0.259-0.534-0.4a19.971 19.971 0 0 1-1.649-1.44c-0.025-0.026-0.054-0.044-0.082-0.071a19.494 19.494 0 0 1-1.541-1.753c-0.116-0.15-0.229-0.308-0.341-0.462a18.938 18.938 0 0 1-1.097-1.639c-0.05-0.086-0.113-0.162-0.167-0.248-0.024-0.042-0.037-0.09-0.062-0.129a18.871 18.871 0 0 1-1.074-2.177c-0.023-0.061-0.04-0.12-0.064-0.183a18.775 18.775 0 0 1-0.68-2.015c-0.064-0.22-0.117-0.438-0.171-0.658a20.075 20.075 0 0 1-0.327-1.651c-0.036-0.242-0.08-0.48-0.109-0.724a19.244 19.244 0 0 1-0.133-2.049c-0.004-0.154-0.004-0.306-0.004-0.461 0.008-0.707 0.055-1.407 0.137-2.095 0.029-0.237 0.071-0.47 0.108-0.705 0.085-0.559 0.192-1.114 0.323-1.656 0.058-0.224 0.114-0.45 0.179-0.676 0.182-0.645 0.395-1.278 0.639-1.895 0.04-0.105 0.072-0.212 0.116-0.32 0.296-0.711 0.639-1.403 1.017-2.072 0.041-0.069 0.065-0.144 0.105-0.215 0.079-0.136 0.184-0.256 0.267-0.395 0.29-0.476 0.6-0.938 0.929-1.386a19.316 19.316 0 0 1 1.918-2.266c0.074-0.074 0.154-0.141 0.23-0.214 0.479-0.468 0.989-0.907 1.519-1.324 0.182-0.144 0.371-0.282 0.558-0.415 0.471-0.347 0.957-0.672 1.458-0.977 0.162-0.099 0.318-0.201 0.486-0.296 0.68-0.382 1.381-0.738 2.104-1.043 0.018-0.006 0.033-0.01 0.04-0.015 0.697-0.289 1.42-0.527 2.156-0.735 0.192-0.055 0.388-0.101 0.578-0.15a19.326 19.326 0 0 1 1.777-0.356c0.211-0.033 0.417-0.069 0.628-0.096a19.284 19.284 0 0 1 2.381-0.161h35.87v-35.977c0-0.806 0.062-1.595 0.157-2.38 0.027-0.209 0.063-0.418 0.096-0.627a20.448 20.448 0 0 1 0.505-2.348 19.547 19.547 0 0 1 1.809-4.334c0.079-0.14 0.166-0.272 0.247-0.408 0.328-0.545 0.677-1.067 1.055-1.578 0.111-0.151 0.22-0.301 0.335-0.449a19.887 19.887 0 0 1 3.333-3.336c0.116-0.091 0.24-0.18 0.354-0.266 0.571-0.43 1.161-0.826 1.78-1.192 0.059-0.036 0.108-0.079 0.167-0.111 0.03-0.019 0.062-0.03 0.091-0.044a19.514 19.514 0 0 1 4.555-1.886c0.109-0.028 0.215-0.057 0.326-0.083a19.848 19.848 0 0 1 2.14-0.423c0.093-0.012 0.183-0.029 0.276-0.039a19.144 19.144 0 0 1 2.455-0.171c0.836 0 1.652 0.066 2.46 0.171 0.078 0.01 0.155 0.025 0.232 0.036a20.223 20.223 0 0 1 2.474 0.504 19.562 19.562 0 0 1 4.575 1.889c0.028 0.022 0.062 0.032 0.094 0.055z" fill="#FFBA00" opacity=".4" /><path d="M603.454 705.568a4.71 4.71 0 0 0 1.359 3.169 4.715 4.715 0 0 0 3.33 1.376l35.87 0.2v-9.319h-35.87a4.797 4.797 0 0 0-4.689 4.574zM719.333 710.113c2.56 0 4.624-2.017 4.736-4.558-0.112-2.547-2.177-4.562-4.736-4.562h-35.87v9.119h35.87z" fill="#FFFFFF" opacity=".4" /><path d="M725.989 693.199c3.141 0.051 5.683 2.595 5.736 5.749v13.317a5.852 5.852 0 0 1-5.736 5.749h-42.526v6.952h35.961a19.617 19.617 0 0 0 13.892-5.735 19.586 19.586 0 0 0 5.788-13.93c0-10.867-8.81-19.679-19.68-19.679l-0.091 0.109h-35.87v7.47h42.526v-0.002zM601.685 717.8a5.845 5.845 0 0 1-5.734-5.751V698.948c0.054-3.154 2.595-5.695 5.734-5.749h42.329v-7.471h-35.87c-0.803 0-1.594 0.061-2.381 0.157-0.211 0.025-0.417 0.064-0.628 0.097-0.598 0.093-1.192 0.212-1.777 0.355-0.19 0.05-0.386 0.096-0.578 0.15-0.731 0.208-1.453 0.447-2.156 0.735-0.01 0.005-0.023 0.008-0.04 0.016-0.721 0.304-1.425 0.659-2.104 1.043-0.17 0.094-0.326 0.196-0.486 0.297-0.501 0.303-0.985 0.627-1.458 0.975-0.187 0.136-0.377 0.271-0.558 0.417-0.53 0.413-1.035 0.854-1.519 1.324-0.076 0.073-0.156 0.139-0.23 0.211a19.842 19.842 0 0 0-1.465 1.662c-0.156 0.199-0.303 0.401-0.453 0.604-0.329 0.448-0.637 0.913-0.929 1.387-0.084 0.136-0.185 0.258-0.267 0.396-0.037 0.07-0.063 0.145-0.105 0.216-0.38 0.675-0.725 1.364-1.017 2.072-0.044 0.105-0.076 0.214-0.116 0.317-0.25 0.625-0.46 1.256-0.639 1.895-0.062 0.227-0.12 0.451-0.179 0.678a20.194 20.194 0 0 0-0.323 1.657c-0.037 0.234-0.079 0.467-0.108 0.703a19.56 19.56 0 0 0-0.137 2.094c0 0.155 0 0.307 0.004 0.46 0.008 0.687 0.053 1.371 0.133 2.05 0.029 0.243 0.071 0.482 0.109 0.724 0.086 0.552 0.191 1.104 0.327 1.651 0.053 0.221 0.106 0.438 0.171 0.658 0.188 0.682 0.409 1.355 0.68 2.016 0.024 0.062 0.041 0.119 0.064 0.181 0.309 0.742 0.671 1.467 1.074 2.178 0.024 0.039 0.037 0.088 0.062 0.131 0.052 0.086 0.115 0.161 0.167 0.248 0.339 0.567 0.704 1.112 1.097 1.637 0.112 0.154 0.225 0.312 0.341 0.465 0.486 0.613 0.993 1.203 1.541 1.751 0.028 0.025 0.057 0.045 0.082 0.072 0.522 0.517 1.075 0.992 1.649 1.438 0.174 0.14 0.353 0.269 0.534 0.403 0.476 0.347 0.963 0.676 1.47 0.98 0.165 0.098 0.325 0.203 0.49 0.297 0.68 0.385 1.377 0.738 2.098 1.04l0.078 0.03c0.689 0.28 1.396 0.517 2.116 0.718 0.196 0.058 0.396 0.105 0.595 0.155 0.58 0.146 1.168 0.262 1.763 0.353 0.211 0.036 0.42 0.07 0.635 0.099 0.783 0.098 1.575 0.159 2.377 0.159h35.87v-7.273h-42.332v-0.007zM668.504 685.729V649.75a4.762 4.762 0 0 0-4.714-4.752 4.756 4.756 0 0 0-4.712 4.752v43.45h9.426v-7.471zM659.078 761.035c0 0.324 0.032 0.635 0.094 0.939 0.035 0.171 0.1 0.331 0.15 0.494 0.04 0.13 0.068 0.266 0.119 0.391 0.078 0.191 0.188 0.368 0.295 0.551 0.05 0.085 0.083 0.179 0.138 0.258 0.169 0.255 0.364 0.493 0.582 0.71a4.773 4.773 0 0 0 2.406 1.297c0.298 0.059 0.607 0.093 0.921 0.093a4.839 4.839 0 0 0 4.718-4.734l-0.106-35.962h-9.317v35.963zM659.078 700.688h9.426v9.428h-9.426z" fill="#FFFFFF" opacity=".4" /><path d="M683.463 700.688v0.308h35.87c2.56 0 4.624 2.017 4.736 4.562 0.004 0.072 0.023 0.14 0.023 0.212a4.765 4.765 0 0 1-4.76 4.762h-35.87V718.016h42.526a5.854 5.854 0 0 0 5.738-5.749V698.95c-0.056-3.154-2.598-5.695-5.738-5.749h-42.526v7.487h0.001zM595.95 712.052a5.847 5.847 0 0 0 5.734 5.75h42.329v-7.487l-35.87-0.199a4.716 4.716 0 0 1-3.33-1.377 4.716 4.716 0 0 1-1.357-3.168c-0.003-0.061-0.021-0.116-0.021-0.176a4.796 4.796 0 0 1 4.705-4.399h35.87v-7.473h-42.326c-3.141 0.054-5.683 2.58-5.736 5.723v12.807h0.002z" fill="#FFFFFF" opacity=".4" /><path d="M683.463 718.014v-0.427h-7.476v7.488h-0.104l0.104 42.323a5.836 5.836 0 0 1-5.745 5.736h-12.905a5.835 5.835 0 0 1-5.75-5.736v-49.811h-7.472v7.488h-0.107v35.962c0 10.882 8.811 19.676 19.68 19.676 7.536 0 14.069-4.23 17.373-10.455a19.624 19.624 0 0 0 2.294-9.221v-35.962h0.105v-7.061h0.003zM644.118 700.688h7.473v9.428h-7.473zM659.078 693.199h9.426v7.485h-9.426zM683.463 710.113V700.688h-7.476v9.425zM668.859 630.781c-0.092-0.024-0.185-0.046-0.276-0.071a19.796 19.796 0 0 0-2.198-0.431c-0.077-0.012-0.156-0.029-0.232-0.038a19.958 19.958 0 0 0-4.915-0.001c-0.095 0.012-0.185 0.03-0.276 0.042-0.72 0.103-1.434 0.243-2.14 0.42-0.111 0.03-0.217 0.055-0.327 0.084a19.714 19.714 0 0 0-4.555 1.888c-0.029 0.015-0.06 0.024-0.09 0.044-0.06 0.033-0.11 0.077-0.167 0.11-0.62 0.364-1.213 0.766-1.781 1.192-0.113 0.089-0.238 0.175-0.356 0.265a19.81 19.81 0 0 0-3.331 3.338c-0.115 0.147-0.225 0.298-0.334 0.449a19.662 19.662 0 0 0-1.055 1.576c-0.082 0.136-0.167 0.271-0.247 0.411a19.48 19.48 0 0 0-1.81 4.332c-0.052 0.185-0.099 0.376-0.146 0.564a21.77 21.77 0 0 0-0.361 1.785c-0.031 0.21-0.066 0.416-0.095 0.625a19.41 19.41 0 0 0-0.158 2.383v35.977h0.107v7.471h7.472v-7.471h-0.092l0.092-42.328a5.843 5.843 0 0 1 5.75-5.734H670.347a5.84 5.84 0 0 1 5.736 5.734v42.328h-0.097v7.471h7.475v-7.471h-0.105v-35.977c0-0.802-0.063-1.594-0.159-2.381a13.809 13.809 0 0 0-0.099-0.632 18.511 18.511 0 0 0-0.353-1.763 19.232 19.232 0 0 0-0.873-2.71c-0.012-0.027-0.02-0.055-0.029-0.079a19.205 19.205 0 0 0-1.04-2.104c-0.091-0.163-0.193-0.319-0.292-0.478a19.491 19.491 0 0 0-0.991-1.487 14.962 14.962 0 0 0-0.388-0.521 19.595 19.595 0 0 0-1.479-1.692l-0.03-0.034a19.156 19.156 0 0 0-1.783-1.565c-0.125-0.105-0.261-0.201-0.397-0.304a20.476 20.476 0 0 0-1.736-1.16c-0.064-0.038-0.116-0.087-0.183-0.122-0.034-0.02-0.066-0.032-0.099-0.05a19.744 19.744 0 0 0-4.566-1.885z" fill="#FFFFFF" opacity=".4" /><path d="M659.078 710.218v14.853h9.426v-14.958h-9.426zM683.463 700.688v-7.489h-7.476v7.489zM644.118 693.199h7.473v7.485h-7.473zM683.463 710.527v-0.414h-7.476v7.472h7.476v-0.096zM668.504 725.071h-0.108l0.108 35.962c-0.052 2.595-2.14 4.663-4.72 4.734a4.71 4.71 0 0 1-0.921-0.093 4.773 4.773 0 0 1-2.406-1.297 4.521 4.521 0 0 1-0.58-0.71c-0.056-0.083-0.09-0.175-0.141-0.258-0.105-0.183-0.216-0.358-0.294-0.551-0.052-0.125-0.08-0.26-0.119-0.391-0.052-0.163-0.114-0.324-0.149-0.494a4.663 4.663 0 0 1-0.094-0.938v-35.962h-7.488v42.323a5.834 5.834 0 0 0 5.751 5.736h12.806a5.828 5.828 0 0 0 5.738-5.736v-42.323h-7.382v-0.002zM659.078 685.729V649.75a4.753 4.753 0 0 1 4.712-4.752c0.017 0 0.034-0.006 0.048-0.006 2.632 0 4.772 2.137 4.772 4.758v35.979h7.475v-42.33a5.845 5.845 0 0 0-5.735-5.735h-13.009a5.85 5.85 0 0 0-5.75 5.735v42.33h7.487zM651.591 710.113h-7.473v7.472h7.473v-7.367z" fill="#FFFFFF" opacity=".4" /><path d="M659.078 685.729h-7.487v7.47h7.487zM659.078 725.071v-7.486h-7.487v7.486h7.38zM651.591 700.688h7.487v9.428h-7.487zM668.61 685.729h-0.106v7.47h7.483v-7.47h-0.103zM668.61 710.113h7.377v-9.425h-7.483v9.425zM668.504 717.585v7.486h7.483v-7.486h-7.377z" fill="#FFFFFF" opacity=".4" /><path d="M659.078 710.218v-0.105h-7.487v7.472h7.487zM651.591 693.199h7.487v7.485h-7.487zM332.086 425.954a96.005 96.005 0 0 0 47.086 82.688 95.958 95.958 0 0 0 47.749 13.381 95.914 95.914 0 0 0 47.396-11.845c-3.022 0.456-6.07 0.695-9.119 0.725-26.376 0-50.279-15.536-60.975-39.653-0.187-0.1-0.36-0.212-0.543-0.312a51.206 51.206 0 0 1-26.825-44.984 22.415 22.415 0 0 0-10.734-20.695 22.385 22.385 0 0 0-11.6-3.266 22.38 22.38 0 0 0-11.703 3.266 22.422 22.422 0 0 0-10.732 20.695zM668.504 693.199v7.489h7.483v-7.489h-7.377zM675.987 710.113h-7.483v7.472h7.483v-7.367z" fill="#FFFFFF" opacity=".4" /><path d="M465.201 510.904c3.047-0.03 6.097-0.27 9.119-0.725 30.799-16.83 49.96-49.117 50-84.223a22.417 22.417 0 0 0-10.736-20.695 22.355 22.355 0 0 0-11.394-3.25 22.383 22.383 0 0 0-11.909 3.25 22.415 22.415 0 0 0-10.733 20.695c0.01 17.994-9.413 34.705-24.84 43.985a51.231 51.231 0 0 1-50.481 1.31c10.693 24.116 34.597 39.653 60.974 39.653z" fill="#FFFFFF" opacity=".4" /><path d="M312.995 364.886c54.076-45.322 85.254-112.34 85.08-182.915a237.612 237.612 0 0 0-13.622-79.517c-0.167 0.025-0.33 0.052-0.496 0.076-152.702 22.083-266.013 153.004-265.947 307.328v6.872l0.117 0.019c69.43 12.445 140.807-6.541 194.868-51.863z" fill="#FEC744" opacity=".4" /><path d="M273.57 516.54a231.83 231.83 0 0 0-74.289-84.652 582.224 582.224 0 0 0 74.289 84.652z" fill="#FFFFFF" opacity=".4" /><path d="M910.723 773.842a137.453 137.453 0 0 0-40.174-97.3 137.457 137.457 0 0 0-97.244-40.318c-75.857 0-137.382 61.495-137.411 137.349-0.038 75.871 61.406 137.409 137.272 137.488 75.872 0.081 137.448-61.336 137.557-137.219z m-157.086 55.455v-35.776h-35.976c-10.856 0-19.665-8.797-19.665-19.679 0-10.856 8.809-19.668 19.665-19.668h35.866v-35.973c0-10.856 8.811-19.68 19.68-19.68 10.87 0 19.664 8.823 19.664 19.68v35.973h35.977c10.87 0 19.667 8.812 19.667 19.668 0 10.882-8.797 19.679-19.667 19.679l0.095-0.202h-35.959v35.979c0 10.853-8.812 19.664-19.679 19.664-10.858-0.001-19.668-8.813-19.668-19.665zM507.591 250.42a237.589 237.589 0 0 0-13.621-79.519C341.015 192.775 227.457 323.815 227.525 478.31v6.871c69.464 12.487 140.896-6.498 194.987-51.845 54.079-45.32 85.257-112.341 85.079-182.916z" fill="#FFBA00" /><path d="M507.591 250.42a237.589 237.589 0 0 0-13.621-79.519C341.015 192.775 227.457 323.815 227.525 478.31v6.871c69.464 12.487 140.896-6.498 194.987-51.845 54.079-45.32 85.257-112.341 85.079-182.916z" fill="#FEC744" /><path d="M847.808 462.839a310.154 310.154 0 0 0-112.552-224.412c-67.477-55.587-155.281-80.12-241.809-67.525 28.318 79.839 12.075 168.717-42.673 233.368-54.733 64.666-139.718 95.362-223.14 80.603 2.406 108.852 61.778 208.451 156.377 262.342 12.113 6.949 17.738 21.415 13.529 34.731-19.171 25.511-28.996 70.613-33.303 95.294a14.845 14.845 0 0 0 3.344 12.111 14.843 14.843 0 0 0 11.402 5.215l250.655-0.616a14.97 14.97 0 0 0 13.426-8.729 14.952 14.952 0 0 0-2.154-15.87 159.532 159.532 0 0 1-33.41-122.246 159.77 159.77 0 0 1 68.717-109.812 159.696 159.696 0 0 1 127.525-22.782c6.805 1.604 13.813-1.845 16.699-8.208a308.987 308.987 0 0 0 27.367-143.464z m-539.012 37.498a231.795 231.795 0 0 1 74.292 84.654 582.597 582.597 0 0 1-74.292-84.654z m325.562-5.933c-0.037 35.108-19.21 67.394-50.014 84.224a96 96 0 0 1-95.146-1.538 96.006 96.006 0 0 1-47.085-82.686h-0.416a22.475 22.475 0 0 1 10.739-20.696 22.424 22.424 0 0 1 23.313 0 22.44 22.44 0 0 1 10.735 20.696c0.016 18.744 10.273 35.944 26.686 44.902 0.054 0.131 0.105 0.264 0.162 0.394a51.241 51.241 0 0 0 51.177-0.668c15.72-9.332 25.265-26.339 25.067-44.628a22.444 22.444 0 0 1 10.735-20.696 22.426 22.426 0 0 1 23.314 0 22.476 22.476 0 0 1 10.733 20.696z" fill="#FFBA00" /><path d="M308.796 500.337a582.642 582.642 0 0 0 74.292 84.654" fill="#FFFFFF" /></svg>